<?xml version="1.0" standalone="no"?>
<!DOCTYPE svg PUBLIC "-//W3C//DTD SVG 20010904//EN"
 "http://www.w3.org/TR/2001/REC-SVG-20010904/DTD/svg10.dtd">
<svg version="1.0" xmlns="http://www.w3.org/2000/svg"
 width="1452.000000pt" height="1452.000000pt" viewBox="0 0 1452.000000 1452.000000"
 preserveAspectRatio="xMidYMid meet">

<g transform="translate(0.000000,1452.000000) scale(0.100000,-0.100000)"
fill="#000000" stroke="none">
<path d="M826 14465 c-15 -8 -41 -15 -57 -15 -16 0 -29 -4 -29 -10 0 -5 -9
-10 -21 -10 -50 0 -192 -114 -320 -256 -78 -87 -217 -353 -258 -494 -12 -41
-27 -86 -33 -100 -5 -14 -14 -45 -19 -70 -5 -25 -15 -79 -24 -120 -8 -41 -19
-106 -25 -145 -13 -94 -13 -3804 0 -3900 17 -120 35 -213 43 -221 4 -4 7 -17
7 -29 0 -27 32 -136 72 -240 69 -184 158 -338 268 -465 78 -90 100 -110 165
-152 28 -18 52 -35 55 -38 5 -5 40 -22 100 -48 19 -8 43 -19 52 -23 10 -5 28
-9 41 -9 13 0 28 -5 33 -10 12 -12 2702 -8 2749 4 73 19 182 74 249 126 28 21
136 129 169 168 53 63 158 237 202 337 10 22 22 48 26 57 9 17 43 109 61 163
44 134 84 355 90 500 l3 90 -1651 3 -1651 2 -6 422 c-8 505 -7 2483 2 2828 l6
245 1645 5 1645 5 -2 123 c-1 68 -6 129 -11 135 -5 7 -12 40 -15 75 -4 34 -13
84 -21 110 -53 174 -82 261 -95 287 -8 16 -20 42 -28 57 -7 14 -13 32 -13 40
0 16 -148 251 -186 296 -49 57 -168 172 -177 172 -5 0 -23 10 -40 23 -48 34
-118 67 -142 67 -11 0 -27 6 -33 13 -10 9 -307 13 -1405 15 -1223 2 -1395 0
-1421 -13z"/>
<path d="M5966 14465 c-15 -8 -37 -15 -47 -15 -10 0 -40 -12 -66 -27 -26 -15
-66 -36 -88 -47 -22 -12 -85 -66 -140 -121 -75 -75 -119 -129 -173 -216 -40
-63 -72 -119 -72 -123 0 -4 -15 -40 -34 -80 -19 -39 -42 -96 -51 -126 -9 -30
-21 -64 -26 -75 -5 -11 -13 -38 -18 -60 -10 -40 -25 -101 -42 -165 -12 -45
-27 -188 -39 -360 -11 -169 -4 -1104 10 -1185 37 -221 50 -288 59 -300 5 -5
11 -29 15 -52 3 -24 14 -60 22 -80 9 -21 21 -49 26 -63 48 -123 139 -294 199
-373 92 -122 260 -277 299 -277 6 0 10 -4 10 -10 0 -5 6 -10 14 -10 7 0 33
-11 58 -24 24 -13 64 -27 89 -31 24 -4 646 -9 1382 -12 l1337 -3 0 -585 0
-585 -1704 0 c-1126 0 -1707 3 -1711 10 -10 16 -82 12 -89 -5 -6 -16 11 -232
20 -246 3 -5 11 -41 19 -81 25 -133 89 -335 125 -396 11 -18 20 -38 20 -43 0
-6 36 -69 81 -140 54 -87 106 -154 158 -206 77 -78 116 -113 127 -113 2 0 15
-9 27 -20 25 -24 74 -50 94 -50 7 0 13 -4 13 -10 0 -5 16 -12 35 -16 19 -3 38
-10 41 -15 3 -5 21 -9 40 -9 19 0 34 -4 34 -10 0 -14 2826 -14 2835 0 3 6 17
10 31 10 13 0 32 4 42 9 9 5 47 23 83 40 36 17 75 40 87 51 12 11 24 20 26 20
25 0 194 176 244 254 25 39 60 95 79 124 39 60 117 233 128 284 4 18 11 38 15
43 7 10 36 124 59 235 7 30 17 114 23 185 15 177 23 1280 9 1365 -11 70 -26
171 -40 261 -5 30 -13 65 -20 77 -6 11 -11 31 -11 44 -1 13 -12 55 -26 93 -14
39 -30 85 -35 103 -6 18 -24 56 -40 83 -16 27 -29 54 -29 59 0 10 -112 187
-133 210 -7 8 -24 31 -38 50 -35 52 -106 119 -166 157 -15 9 -30 20 -33 23
-13 14 -154 80 -170 80 -11 0 -22 5 -25 10 -3 6 -23 10 -44 10 -20 0 -43 6
-49 13 -10 9 -295 13 -1343 15 l-1329 2 2 543 3 542 1725 5 1725 5 -2 85 c-2
47 -7 101 -12 120 -5 19 -14 64 -20 100 -32 215 -111 422 -234 617 -107 170
-177 247 -306 336 -62 43 -90 57 -112 57 -11 0 -19 5 -19 10 0 6 -13 10 -29
10 -16 0 -42 7 -57 15 -25 13 -206 15 -1424 15 -1218 0 -1399 -2 -1424 -15z"/>
<path d="M807 6420 c-32 -4 -64 -13 -70 -19 -6 -6 -21 -11 -34 -11 -13 0 -23
-4 -23 -10 0 -5 -8 -10 -17 -10 -10 0 -34 -10 -53 -22 -19 -12 -47 -29 -62
-38 -59 -33 -179 -144 -218 -201 -13 -19 -28 -39 -34 -44 -36 -33 -146 -235
-186 -340 -12 -33 -26 -69 -30 -80 -11 -28 -29 -98 -46 -175 -7 -36 -18 -85
-23 -110 -13 -57 -13 -4203 -1 -4275 23 -130 32 -173 47 -220 32 -103 43 -135
52 -152 117 -234 135 -265 210 -362 36 -47 155 -171 163 -171 4 0 18 -10 32
-23 37 -35 164 -97 196 -97 16 0 32 -5 35 -10 9 -15 2997 -14 3044 2 305 98
558 431 674 888 33 128 38 160 52 338 13 155 15 387 13 1337 l-3 1150 -1500 0
-1500 0 -3 -30 c-2 -16 1 -45 7 -65 5 -19 18 -69 27 -110 16 -70 40 -149 79
-260 42 -118 152 -314 218 -388 90 -102 219 -202 261 -202 7 0 28 -8 47 -17
31 -17 88 -18 757 -18 715 0 723 0 728 -20 2 -11 3 -319 2 -685 l-3 -665
-1405 0 -1405 0 -3 1933 c-2 1542 0 1932 10 1933 7 1 835 0 1841 -1 l1827 -2
0 44 c0 52 -14 140 -35 228 -9 36 -20 85 -25 110 -6 25 -14 54 -19 65 -4 11
-16 37 -25 58 -9 21 -16 43 -16 50 0 36 -139 285 -201 361 -52 64 -155 166
-166 166 -7 0 -13 4 -13 9 0 5 -16 19 -35 31 -20 12 -41 27 -48 34 -11 11 -45
31 -99 57 -10 5 -28 9 -40 9 -12 0 -30 8 -41 18 -18 16 -102 17 -1451 18 -787
1 -1457 -2 -1489 -6z"/>
<path d="M6138 6421 c-27 -4 -53 -12 -60 -19 -7 -7 -20 -12 -30 -12 -10 0 -26
-4 -36 -9 -9 -5 -30 -15 -47 -22 -89 -41 -241 -170 -326 -279 -72 -91 -178
-285 -195 -357 -4 -15 -11 -33 -16 -40 -10 -13 -33 -89 -49 -163 -6 -25 -14
-54 -19 -65 -14 -30 -36 -195 -59 -430 -14 -145 -15 -3059 -1 -3461 12 -340
18 -388 74 -619 24 -101 86 -273 111 -312 8 -12 15 -28 15 -34 0 -16 135 -232
169 -273 80 -93 194 -196 218 -196 7 0 13 -4 13 -10 0 -5 9 -10 20 -10 11 0
20 -4 20 -8 0 -11 72 -42 98 -42 11 0 24 -5 27 -10 9 -15 2817 -14 2864 2 89
28 121 41 121 49 0 5 7 9 15 9 50 0 217 150 294 265 101 149 194 329 216 415
3 14 10 34 15 45 23 55 67 241 82 351 16 114 23 3877 8 3994 -21 159 -45 290
-59 325 -5 11 -13 38 -19 60 -11 44 -57 175 -70 203 -43 90 -114 215 -144 258
-18 25 -45 62 -60 83 -36 50 -187 191 -204 191 -8 0 -14 5 -14 10 0 6 -7 10
-15 10 -8 0 -15 3 -15 8 0 10 -58 42 -76 42 -8 0 -14 5 -14 10 0 6 -8 10 -18
10 -11 0 -34 8 -53 18 -32 16 -119 17 -1384 18 -742 1 -1371 -1 -1397 -5z
m2672 -3211 l0 -2000 -1262 0 c-695 0 -1287 3 -1315 6 l-53 7 0 1993 0 1994
1315 0 1315 0 0 -2000z"/>
</g>
<g transform="translate(0.000000,1452.000000) scale(0.100000,-0.100000)"
fill="#1d6338" stroke="none">
<path d="M11238 14459 c-75 -11 -120 -31 -177 -77 -25 -22 -79 -56 -120 -77
-60 -32 -80 -49 -106 -89 -18 -28 -46 -62 -62 -76 -17 -14 -40 -46 -51 -72
-11 -26 -33 -63 -47 -82 -24 -32 -53 -99 -90 -211 -7 -22 -23 -87 -34 -145
-11 -58 -29 -136 -38 -175 -17 -66 -18 -223 -18 -2696 0 -2569 0 -2627 19
-2648 25 -28 98 -28 218 0 72 18 102 31 151 67 34 25 86 54 116 64 81 29 87
33 130 96 22 31 53 66 70 77 18 11 42 42 56 71 13 27 40 74 59 103 20 29 36
60 36 68 0 8 14 43 30 77 17 35 35 91 41 124 5 34 14 73 19 86 5 14 17 62 26
108 15 71 18 177 23 758 6 624 7 678 24 703 l17 27 951 0 c596 0 957 -4 968
-10 10 -5 23 -17 27 -27 5 -10 11 -543 14 -1185 l5 -1167 21 -28 21 -28 458 0
458 0 21 28 21 28 3 3109 c2 2475 0 3116 -10 3146 -8 23 -23 44 -38 51 -20 10
-348 12 -1590 12 -861 -1 -1591 -5 -1622 -10z m2201 -1310 c20 -7 34 -20 39
-37 4 -15 7 -293 7 -619 l0 -591 -24 -26 -24 -26 -946 0 c-520 0 -951 4 -958
8 -7 4 -19 27 -28 51 -23 66 -23 1125 1 1194 12 37 21 47 42 50 15 2 439 5
943 6 644 1 925 -2 948 -10z"/>
<path d="M11135 6400 c-3 -5 -19 -10 -35 -10 -19 0 -55 -19 -107 -57 -43 -32
-105 -71 -138 -88 -39 -19 -67 -42 -84 -69 -14 -21 -41 -55 -59 -74 -45 -48
-71 -86 -84 -124 -6 -18 -24 -50 -39 -71 -34 -47 -97 -202 -105 -259 -3 -24
-20 -101 -37 -173 l-32 -130 0 -2622 0 -2622 21 -28 c19 -25 28 -28 85 -31 59
-3 94 3 189 31 56 16 82 29 133 69 27 21 57 38 67 38 10 0 22 5 25 10 3 6 16
10 29 10 22 0 96 62 96 80 0 5 31 40 68 78 39 39 72 81 76 98 4 16 18 40 31
54 39 41 111 225 150 385 47 190 54 330 55 1028 0 324 4 505 10 518 10 19 32
19 968 19 585 0 963 -4 972 -10 13 -8 16 -153 20 -1172 5 -1151 5 -1163 26
-1198 l20 -35 470 0 469 0 23 45 22 44 0 3096 0 3095 -23 40 -23 40 -1626 3
c-1080 1 -1629 -1 -1633 -8z m2242 -1354 l28 -24 0 -580 c0 -556 -1 -581 -19
-601 l-19 -21 -954 0 -953 0 -10 26 c-7 17 -9 237 -8 604 3 552 4 579 22 599
l19 21 933 0 933 0 28 -24z"/>
</g>
</svg>
